<svg width="32" height="32" viewBox="0 0 32 32" fill="none" xmlns="http://www.w3.org/2000/svg">
<path d="M25.4281 6.57292C27.8409 8.98578 29.3333 12.3191 29.3333 16.001C29.3333 19.6829 27.8409 23.0162 25.4281 25.4291M21.1855 10.8151C22.5125 12.1422 23.3333 13.9755 23.3333 16.0006C23.3333 18.0256 22.5125 19.8589 21.1855 21.186M5.33332 10.6667H7.1111C7.68809 10.6667 8.24951 10.4795 8.7111 10.1333L14.9333 5.46667C15.3728 5.13705 16 5.45064 16 6V26C16 26.5494 15.3728 26.863 14.9333 26.5333L8.7111 21.8667C8.24951 21.5205 7.68809 21.3333 7.1111 21.3333H5.33332C3.86056 21.3333 2.66666 20.1394 2.66666 18.6667V13.3333C2.66666 11.8606 3.86056 10.6667 5.33332 10.6667Z" stroke="#565876" stroke-width="2" stroke-linecap="round" stroke-linejoin="round"/>
</svg>
