<svg width="32" height="32" viewBox="0 0 32 32" fill="none" xmlns="http://www.w3.org/2000/svg">
<path d="M13.3304 24.6667C13.3304 26.5076 11.5396 28 9.33041 28C7.12127 28 5.33041 26.5076 5.33041 24.6667C5.33041 22.8257 7.12127 21.3333 9.33041 21.3333C11.5396 21.3333 13.3304 22.8257 13.3304 24.6667ZM13.3304 24.6667V9.98408C13.3304 8.80646 14.1029 7.76826 15.2308 7.42988L23.2308 5.02988C24.9418 4.51659 26.6637 5.79778 26.6637 7.58408V20.6667M26.6637 20.6667C26.6637 22.5076 24.8729 24 22.6637 24C20.4546 24 18.6637 22.5076 18.6637 20.6667C18.6637 18.8257 20.4546 17.3333 22.6637 17.3333C24.8729 17.3333 26.6637 18.8257 26.6637 20.6667Z" stroke="#565876" stroke-width="2" stroke-linejoin="round"/>
</svg>
