<svg width="340" height="219" viewBox="0 0 340 219" fill="none" xmlns="http://www.w3.org/2000/svg">
<path d="M108.04 182.154C108.04 175.898 107.433 171.51 112.813 171.51C116.372 171.51 120.288 171.469 128.462 171.469C132.062 171.347 131.742 175.03 131.863 177.671C131.863 182.154 131.863 185.651 131.863 188.798C131.863 190.214 133.695 190.706 137.959 190.706C142.319 190.706 142.626 189.545 142.644 188.798C142.644 172.887 142.644 157.434 142.644 151.748C142.644 144.607 142.967 143.118 150.107 143.118C153.707 143.118 159.087 142.996 167.177 143.036C171.06 143.036 171.393 146.382 171.393 149.37C171.393 167.22 172.053 189.346 172.053 207.75C172.053 218.556 165.599 218.42 153.464 218.42C141.208 218.42 124.703 218.501 116.736 218.501C109.688 218.501 108.369 213.97 108.205 206.23C108.072 200.001 108.04 191.866 108.04 182.154Z" fill="white"/>
<path d="M33.3602 170.893C33.3602 171.824 34.2176 171.824 39.889 171.824C46.1157 171.925 55.4991 171.706 56.4708 171.706C70.9432 171.706 74.0094 172.317 74.2956 182.08C74.6227 192.088 74.7862 201.486 74.7862 211.494C74.7862 218.328 69.0626 218.369 61.7447 218.369C48.9484 218.369 22.7307 218.654 11.2836 218.654C7.80858 218.654 0 219.386 0 214.341C0 210.517 0.16354 204.895 0.16354 200.013C0.16354 196.555 2.57561 194.155 5.35563 194.155C10.9974 194.155 19.8588 194.115 27.79 194.115C28.2806 194.115 29.8695 194.682 29.8695 191.966C29.8695 190.502 28.3215 190.705 27.8309 190.705C23.947 190.705 13.0824 190.705 9.19857 190.705C5.96885 190.705 0.572365 191.397 0.572365 187.003C0.572365 179.599 0.654125 163.696 0.490595 156.454C0.490595 146.935 -0.957474 143.122 10.3842 143.122C21.9223 143.122 29.2709 143.192 41.3731 143.192C51.4431 143.192 54.7776 141.756 54.7776 146.557C54.7776 152.769 54.7776 157.971 54.7776 163.3C54.7776 167.904 53.4518 168.267 48.7742 168.267C46.2534 168.267 42.675 168.267 37.9985 168.267C34.9738 168.267 33.3602 168.404 33.3602 170.893Z" fill="white"/>
<path d="M103.854 167.862C103.936 173.537 103.936 180.53 103.936 185.644C103.936 195.315 103.895 204.495 104.101 215.085C104.183 219.96 97.148 218.162 82.7894 218.641C78.1815 218.801 78.6341 215.684 78.6341 207.812C78.6341 195.185 78.3049 180.929 77.9758 168.142C71.7633 167.902 67.0731 167.982 64.1932 168.022C57.8162 168.022 58.639 165.776 58.639 152.509C58.639 145.676 58.9938 143.238 66.1352 143.238C82.469 143.238 99.837 143.238 122.778 143.238C129.853 143.238 132.117 143.478 132.117 149.672C132.117 165.376 132.529 167.623 125.905 167.703C123.066 167.743 108.997 167.663 103.854 167.862Z" fill="white"/>
<path d="M247.089 180.772C247.089 169.678 243.52 160.509 243.52 155.105C243.52 144.5 241.326 143.524 252.485 143.118C255.64 142.996 261.988 143.159 267.067 143.118C273.454 143.077 273.954 144.54 274.108 150.717C274.493 168.067 274.609 181.517 274.724 203.216C274.763 211.14 274.493 218.474 267.76 218.474C262.373 218.474 255.909 218.515 250.561 218.515C246.867 218.515 242.74 217.781 242.74 213.433C242.74 203.748 247.089 195.3 247.089 180.772Z" fill="white"/>
<path d="M339.169 210.664C339.169 217.83 328.957 218.515 321.803 218.515C308.27 218.515 300.264 218.747 287.151 218.425C281.428 218.264 279.123 215.455 278.964 209.577C278.647 196.252 278.289 178.58 278.289 163.604C278.289 151.929 275.626 143.193 292.118 143.193C301.298 143.193 320.333 143.072 325.499 143.072C332.731 143.072 337.977 144.602 338.692 150.721C339.884 160.665 339.169 196.735 339.169 210.664ZM311.59 173.185C311.59 169.521 311.669 167.307 309.762 167.307C307.497 167.307 305.828 166.784 305.828 169.763C305.828 174.715 305.828 180.109 305.828 185.061C305.828 192.791 307.179 192.267 309.126 192.267C312.226 192.267 311.789 188.886 311.789 185.504C311.749 181.961 311.59 176.969 311.59 173.185Z" fill="white"/>
<path d="M175.707 149.366C175.707 142.03 191.2 143.13 199.98 143.13C214.37 143.13 230.276 141.785 238.275 157.6C244.344 169.583 245.999 192.041 237.724 206.551C229.357 221.142 206.784 217.963 190.924 218.126C180.948 218.249 176.719 217.759 176.673 212.135C176.673 201.089 175.707 166.852 175.707 149.366ZM212.72 174.087C212.72 170.296 212.853 167.789 210.646 167.789C208.026 167.789 206.9 167.318 206.9 170.375C206.9 175.511 206.9 181.095 206.9 186.23C206.9 194.219 207.658 193.63 209.91 193.63C213.496 193.63 212.949 190.308 212.949 186.803C212.949 183.176 212.766 177.999 212.72 174.087Z" fill="white"/>
<path d="M273.638 111.354C273.638 117.504 273.832 118.869 273.832 125.712C273.832 132.554 274.678 136.98 267.703 136.98C262.623 136.98 232.595 136.98 228.845 136.98C222.918 136.98 223.16 131.63 223.16 117.05C223.16 97.0163 223.16 92.533 223.039 72.3785C222.918 49.9622 222.475 28.7981 223.039 6.42212C223.684 -0.605701 229.125 0.363654 235.152 0.363654C243.389 0.363654 260.486 0.363654 265.324 0.363654C273.872 0.363654 272.986 5.25283 272.986 10.8063C272.986 14.0212 273.106 16.7527 273.106 20.684C275.269 17.4516 281.699 8.75619 286.405 2.55931C288.221 0.167509 290.039 1.5641e-05 298.789 1.5641e-05C309.514 0.0404054 314.603 2.08165e-05 327.184 0C334.489 -1.20868e-05 333.817 6.27158 332.159 9.85512C320.231 35.6404 316.69 42.9555 305.461 66.3918C318.321 90.8998 320.65 94.7204 338.775 129.549C340.438 132.743 340.219 136.98 325.268 136.98C316.368 136.98 307.002 136.94 296.841 136.94C292.568 136.94 289.127 137.101 286.318 133.87C281 127.756 276.804 116.852 273.638 111.354Z" fill="white"/>
<path d="M77.6841 137.12C57.1555 137.12 35.4264 137.603 16.1783 137.603C-0.948899 137.603 1.212 127.332 1.212 115.369C1.212 92.3291 0.0915412 87.4554 8.65514 87.4554C17.6989 87.4554 29.6639 88.7444 35.2263 86.247C37.4272 85.2803 37.4272 82.1385 37.0671 80.0037C36.4668 76.4188 18.6593 78.0703 7.4146 78.0703C1.6922 78.0703 1.89229 68.9268 1.89229 64.4557C1.89229 46.8535 1.89228 28.8082 1.41208 11.0046C0.971896 3.15006 9.93567 1.98196 15.8982 1.82084C23.0212 1.41804 69.2406 0.0888043 85.2473 0.249923C89.369 0.411042 95.7317 0.330482 95.8918 5.88908C96.1719 34.0446 100.774 33.3598 71.2814 33.2793C68.0801 33.2793 52.4335 33.6015 58.4761 39.5226C60.3969 40.5699 62.5578 40.9727 64.7187 40.8921C70.8012 40.9324 76.8838 41.013 82.9263 41.0935C94.6112 41.1338 97.1323 48.1022 97.1323 58.0513C97.1323 66.3891 97.4925 106.749 97.4925 115.087C97.4524 130.877 98.9731 137.12 77.6841 137.12Z" fill="white"/>
<path d="M103.899 19.2738C103.899 3.58194 104.829 0.322876 121.113 0.322876C146.448 0.322876 166.247 0.322876 193.603 0.322876C207.988 0.322876 216.029 0.805692 216.029 15.4514C216.029 38.5063 216.029 95.5602 216.029 114.913C216.029 134.428 211.382 137.204 187.3 137.204C175.016 137.204 141.963 137.204 122.284 137.204C109.435 137.204 104.869 128.312 104.869 122.116C104.869 103.969 103.899 35.4082 103.899 19.2738Z" fill="white"/>
<path d="M159.701 32.2861C151.935 32.3165 144.566 33.8392 137.942 36.5038C136.283 37.1737 135.293 38.8791 135.521 40.6605L143.028 101.368C143.302 103.591 145.19 105.25 147.413 105.25H172.582C174.82 105.25 176.693 103.591 176.967 101.368L184.474 40.6605C184.687 38.8791 183.697 37.1737 182.038 36.5038C175.262 33.763 167.679 32.2556 159.701 32.2861Z" fill="#07090F"/>
<path d="M171.455 65.0377C164.618 65.8142 160.995 71.0216 155.452 70.5496C151.235 70.1841 149.742 67.4282 144.916 67.7479C144.261 67.7936 143.591 67.9002 142.951 68.0525L146.301 95.0943C146.697 98.2766 149.407 100.682 152.62 100.682H167.116C170.328 100.682 173.039 98.2918 173.434 95.0943L177.073 65.6924C175.414 65.129 173.511 64.8093 171.455 65.0377Z" fill="#FB7F2D"/>
<path d="M162.015 62.9365C165.252 62.9365 167.877 60.3119 167.877 57.0744C167.877 53.8368 165.252 51.2123 162.015 51.2123C158.777 51.2123 156.153 53.8368 156.153 57.0744C156.153 60.3119 158.777 62.9365 162.015 62.9365Z" fill="#FB7F2D"/>
<path d="M150.412 49.9334C152.313 49.9334 153.853 48.3928 153.853 46.4923C153.853 44.5918 152.313 43.0511 150.412 43.0511C148.512 43.0511 146.971 44.5918 146.971 46.4923C146.971 48.3928 148.512 49.9334 150.412 49.9334Z" fill="#FB7F2D"/>
<path d="M164.223 44.8629C165.585 44.8629 166.689 43.7585 166.689 42.3962C166.689 41.0339 165.585 39.9296 164.223 39.9296C162.86 39.9296 161.756 41.0339 161.756 42.3962C161.756 43.7585 162.86 44.8629 164.223 44.8629Z" fill="#FB7F2D"/>
</svg>
