<svg width="77" height="76" viewBox="0 0 77 76" fill="none" xmlns="http://www.w3.org/2000/svg">
<g filter="url(#filter0_d_81_369)">
<path d="M23.2222 46.0614L25.7267 49.4816L24.3904 49.3067L21.89 45.8824L23.2222 46.0614Z" fill="#D84905"/>
<path d="M51.9352 25.6604C52.7673 26.8017 53.6035 27.9431 54.4356 29.0844C56.1039 31.3671 57.004 34.1668 57 37.1613L54.4996 33.7373C54.4996 30.7388 53.6035 27.9391 51.9352 25.6604Z" fill="url(#paint0_linear_81_369)"/>
<path d="M54.4995 33.7373L56.9999 37.1615L55.7317 38.0882L53.2273 34.6679L54.4995 33.7373Z" fill="#F67205"/>
<path d="M41.8214 50.4557L44.3219 53.8799L43.7818 54.7429L41.2773 51.3187L41.8214 50.4557Z" fill="#D84905"/>
<path d="M41.2773 51.3187L43.7778 54.7427C40.1411 56.0988 36.2005 56.4209 32.5398 55.3988C29.7314 54.6114 27.439 53.1321 25.7547 51.1954L23.2543 47.7714C24.9386 49.7081 27.2309 51.1874 30.0394 51.9748C33.7 53.0008 37.6407 52.6787 41.2773 51.3187Z" fill="url(#paint1_linear_81_369)"/>
<path d="M42.7336 50.7102L45.238 54.1344L44.3218 53.8799L41.8214 50.4557L42.7336 50.7102Z" fill="#F69D05"/>
<path d="M54.4475 35.0059L56.948 38.4299C56.7919 40.287 56.2918 42.1959 55.4197 44.0928C53.3513 48.5946 49.5867 52.122 45.238 54.1342L42.7375 50.7102C47.0903 48.698 50.8509 45.1745 52.9193 40.6688C53.7914 38.7719 54.2915 36.863 54.4475 35.0059Z" fill="url(#paint2_linear_81_369)"/>
<path style="mix-blend-mode:overlay" opacity="0.7" d="M54.5995 35.2007C54.4395 37.0579 53.9434 38.9668 53.0713 40.8637C51.0029 45.3654 47.2383 48.8928 42.8895 50.9051L41.9734 50.6506L41.4293 51.5135C37.7927 52.8736 33.852 53.1917 30.1914 52.1697C27.3829 51.3823 25.0865 49.9029 23.4062 47.9662L23.3742 46.2562L22.038 46.0812C19.7296 42.1919 19.4376 37.0977 21.734 32.1028C22.4181 30.6155 23.2902 29.2316 24.3024 27.9749C25.0505 27.6528 25.8307 27.1915 25.8747 27.1676L26.1027 26.0223C30.3434 21.966 36.2164 19.731 41.7974 20.2758L43.0016 21.2462L46.3901 21.4132C51.627 23.6044 54.6595 28.4322 54.6515 33.9321L53.3793 34.8587L54.5995 35.2007Z" fill="url(#paint3_linear_81_369)"/>
<path d="M54.4476 35.0059C54.2875 36.8631 53.7914 38.7719 52.9193 40.6689C50.8509 45.1706 47.0863 48.698 42.7376 50.7103L41.8214 50.4557L41.2773 51.3187C37.6407 52.6788 33.7 52.9969 30.0394 51.9749C27.2309 51.1875 24.9346 49.7081 23.2543 47.7714L23.2223 46.0614L21.886 45.8864C19.5776 41.9971 19.2856 36.9028 21.582 31.908C22.2661 30.4207 23.1382 29.0367 24.1504 27.7801C24.8985 27.458 25.6787 26.9967 25.7227 26.9728L25.9507 25.8275C30.1914 21.7711 36.0644 19.5362 41.6454 20.081L42.8496 21.0513L46.2382 21.2224C51.4751 23.4136 54.5076 28.2414 54.4996 33.7413L53.2274 34.6679L54.4476 35.0099V35.0059Z" fill="url(#paint4_linear_81_369)"/>
<path style="mix-blend-mode:overlay" opacity="0.7" d="M42.1775 24.8014C48.4746 26.5631 51.231 33.1089 48.3345 39.4121C45.438 45.7193 37.9768 49.4018 31.6797 47.6401C25.3826 45.8784 22.6222 39.3366 25.5227 33.0294C28.4232 26.7222 35.8804 23.0397 42.1815 24.8014H42.1775Z" fill="url(#paint5_linear_81_369)"/>
<path d="M42.5016 24.869C48.7987 26.6308 51.5551 33.1726 48.6586 39.4798C45.7621 45.787 38.3009 49.4695 32.0038 47.7077C25.7067 45.946 22.9463 39.4042 25.8468 33.097C28.7473 26.7898 36.2045 23.1073 42.5056 24.869H42.5016Z" fill="url(#paint6_linear_81_369)"/>
<path d="M32.9999 47.9027C26.7029 46.1409 23.9424 39.5991 26.8429 33.2919C29.5274 27.454 36.1245 23.8629 42.0855 24.7617C35.8764 23.2704 28.6792 26.9291 25.8427 33.0971C22.9422 39.4042 25.7027 45.9461 31.9998 47.7078C32.4639 47.839 32.9359 47.9345 33.412 48.006C33.272 47.9742 33.136 47.9384 32.9959 47.9027H32.9999Z" fill="#BA3E05"/>
<path d="M33.808 40.3944L31.1075 43.6912L36.2764 45.0671L36.7325 41.1699C37.1646 41.8936 37.8807 42.4464 38.8088 42.693C40.9772 43.2696 43.5016 41.9772 44.4578 39.8018C45.414 37.6305 44.4298 35.4035 42.2654 34.8269C42.1374 34.7911 42.0054 34.7633 41.8734 34.7434C42.3414 34.294 42.7335 33.7611 43.0016 33.1527C43.9577 30.9774 42.9776 28.7543 40.8132 28.1777C38.6488 27.6011 36.1204 28.8935 35.1642 31.0688C34.9002 31.6733 34.7882 32.2817 34.8082 32.8623C34.6881 32.8146 34.5601 32.7749 34.4321 32.7391C32.2677 32.1624 29.7393 33.4549 28.7831 35.6262C27.827 37.8015 28.8112 40.0285 30.9755 40.6052C31.9077 40.8517 32.9038 40.7563 33.816 40.3904L33.808 40.3944Z" fill="url(#paint7_linear_81_369)"/>
<path style="mix-blend-mode:overlay" opacity="0.5" d="M48.9786 47.6639C46.4262 50.1613 44.0498 51.8753 43.6737 51.4935C43.2936 51.1117 45.0579 48.7774 47.6104 46.2799C50.1628 43.7825 52.5392 42.0685 52.9153 42.4503C53.2953 42.8321 51.531 45.1664 48.9786 47.6639Z" fill="url(#paint8_radial_81_369)"/>
<path style="mix-blend-mode:overlay" opacity="0.4" d="M50.823 24.348L23.2423 47.0436L23.2543 47.7713C24.9386 49.708 27.231 51.1874 30.0395 51.9748C30.6716 52.1498 31.3117 52.285 31.9558 52.3844L53.4194 34.7235L53.2274 34.6678L54.4996 33.7412C54.4996 30.1382 53.1954 26.8256 50.823 24.352V24.348Z" fill="url(#paint9_linear_81_369)"/>
<path style="mix-blend-mode:overlay" opacity="0.4" d="M42.8496 21.0513L41.6454 20.081C40.0091 19.9219 38.3448 20.0054 36.7045 20.3037L21.0619 33.1725C20.1537 35.6183 19.8457 38.064 20.0817 40.3507L43.4937 21.0831L42.8496 21.0513Z" fill="url(#paint10_linear_81_369)"/>
</g>
<defs>
<filter id="filter0_d_81_369" x="0" y="0" width="77" height="76" filterUnits="userSpaceOnUse" color-interpolation-filters="sRGB">
<feFlood flood-opacity="0" result="BackgroundImageFix"/>
<feColorMatrix in="SourceAlpha" type="matrix" values="0 0 0 0 0 0 0 0 0 0 0 0 0 0 0 0 0 0 127 0" result="hardAlpha"/>
<feOffset/>
<feGaussianBlur stdDeviation="10"/>
<feComposite in2="hardAlpha" operator="out"/>
<feColorMatrix type="matrix" values="0 0 0 0 0 0 0 0 0 0 0 0 0 0 0 0 0 0 0.2 0"/>
<feBlend mode="normal" in2="BackgroundImageFix" result="effect1_dropShadow_81_369"/>
<feBlend mode="normal" in="SourceGraphic" in2="effect1_dropShadow_81_369" result="shape"/>
</filter>
<linearGradient id="paint0_linear_81_369" x1="27.535" y1="54.6433" x2="55.5627" y2="30.1749" gradientUnits="userSpaceOnUse">
<stop stop-color="#D13F05"/>
<stop offset="0.29" stop-color="#F67205"/>
<stop offset="0.37" stop-color="#F67605"/>
<stop offset="0.45" stop-color="#F68405"/>
<stop offset="0.54" stop-color="#F69B05"/>
<stop offset="0.56" stop-color="#F6A205"/>
<stop offset="0.6" stop-color="#F69005"/>
<stop offset="0.64" stop-color="#F67F05"/>
<stop offset="0.69" stop-color="#F67505"/>
<stop offset="0.76" stop-color="#F67205"/>
<stop offset="1" stop-color="#D13F05"/>
</linearGradient>
<linearGradient id="paint1_linear_81_369" x1="28.4191" y1="55.6534" x2="56.4469" y2="31.189" gradientUnits="userSpaceOnUse">
<stop stop-color="#D13F05"/>
<stop offset="0.29" stop-color="#F67205"/>
<stop offset="0.37" stop-color="#F67605"/>
<stop offset="0.45" stop-color="#F68405"/>
<stop offset="0.54" stop-color="#F69B05"/>
<stop offset="0.56" stop-color="#F6A205"/>
<stop offset="0.6" stop-color="#F69005"/>
<stop offset="0.64" stop-color="#F67F05"/>
<stop offset="0.69" stop-color="#F67505"/>
<stop offset="0.76" stop-color="#F67205"/>
<stop offset="1" stop-color="#D13F05"/>
</linearGradient>
<linearGradient id="paint2_linear_81_369" x1="32.3718" y1="60.1829" x2="60.3995" y2="35.7186" gradientUnits="userSpaceOnUse">
<stop stop-color="#D13F05"/>
<stop offset="0.29" stop-color="#F67205"/>
<stop offset="0.37" stop-color="#F67605"/>
<stop offset="0.45" stop-color="#F68405"/>
<stop offset="0.54" stop-color="#F69B05"/>
<stop offset="0.56" stop-color="#F6A205"/>
<stop offset="0.6" stop-color="#F69005"/>
<stop offset="0.64" stop-color="#F67F05"/>
<stop offset="0.69" stop-color="#F67505"/>
<stop offset="0.76" stop-color="#F67205"/>
<stop offset="1" stop-color="#D13F05"/>
</linearGradient>
<linearGradient id="paint3_linear_81_369" x1="21.95" y1="48.9763" x2="52.9187" y2="23.6336" gradientUnits="userSpaceOnUse">
<stop stop-color="white" stop-opacity="0"/>
<stop offset="0.26" stop-color="white"/>
<stop offset="0.76" stop-color="white"/>
<stop offset="1" stop-color="white" stop-opacity="0"/>
</linearGradient>
<linearGradient id="paint4_linear_81_369" x1="49.2867" y1="41.3449" x2="17.7828" y2="27.955" gradientUnits="userSpaceOnUse">
<stop stop-color="#FFAF02"/>
<stop offset="1" stop-color="#F56D05"/>
</linearGradient>
<linearGradient id="paint5_linear_81_369" x1="25.6947" y1="25.549" x2="43.909" y2="43.0605" gradientUnits="userSpaceOnUse">
<stop stop-color="white" stop-opacity="0"/>
<stop offset="0.26" stop-color="white"/>
<stop offset="0.76" stop-color="white"/>
<stop offset="1" stop-color="white" stop-opacity="0"/>
</linearGradient>
<linearGradient id="paint6_linear_81_369" x1="24.6906" y1="36.2904" x2="49.8108" y2="36.2904" gradientUnits="userSpaceOnUse">
<stop stop-color="#CF4505"/>
<stop offset="1" stop-color="#E45905"/>
</linearGradient>
<linearGradient id="paint7_linear_81_369" x1="44.5698" y1="39.5354" x2="29.7863" y2="33.2522" gradientUnits="userSpaceOnUse">
<stop stop-color="#FFAF02"/>
<stop offset="1" stop-color="#F56D05"/>
</linearGradient>
<radialGradient id="paint8_radial_81_369" cx="0" cy="0" r="1" gradientUnits="userSpaceOnUse" gradientTransform="translate(52.7916 51.2349) rotate(45.2985) scale(0.936114 6.45971)">
<stop stop-color="white"/>
<stop offset="0.09" stop-color="white" stop-opacity="0.96"/>
<stop offset="0.24" stop-color="white" stop-opacity="0.85"/>
<stop offset="0.43" stop-color="white" stop-opacity="0.66"/>
<stop offset="0.66" stop-color="white" stop-opacity="0.41"/>
<stop offset="0.93" stop-color="white" stop-opacity="0.09"/>
<stop offset="1" stop-color="white" stop-opacity="0"/>
</radialGradient>
<linearGradient id="paint9_linear_81_369" x1="33.12" y1="31.4744" x2="44.3674" y2="44.7479" gradientUnits="userSpaceOnUse">
<stop stop-color="white"/>
<stop offset="1" stop-color="white" stop-opacity="0"/>
</linearGradient>
<linearGradient id="paint10_linear_81_369" x1="26.5188" y1="25.4019" x2="32.5391" y2="31.5463" gradientUnits="userSpaceOnUse">
<stop stop-color="white"/>
<stop offset="1" stop-color="white" stop-opacity="0"/>
</linearGradient>
</defs>
</svg>
